<svg width="25" height="20" viewBox="0 0 25 20" fill="none" xmlns="http://www.w3.org/2000/svg">
<path fill-rule="evenodd" clip-rule="evenodd" d="M7.86257 20C17.2964 20 22.4565 12.3044 22.4565 5.63153C22.4565 5.41246 22.4565 5.19505 22.4415 4.97845C23.4452 4.26464 24.3115 3.37836 25.0002 2.36428C24.0652 2.77287 23.0715 3.04082 22.0552 3.15896C23.1252 2.52762 23.9265 1.53574 24.3102 0.365349C23.3027 0.953619 22.2015 1.3688 21.0527 1.59156C19.1102 -0.441553 15.8614 -0.540058 13.7951 1.37244C12.4639 2.6056 11.8976 4.44421 12.3114 6.19794C8.18758 5.99365 4.34504 4.07626 1.74002 0.921997C0.378754 3.22954 1.07501 6.18044 3.32878 7.6622C2.51252 7.63881 1.71377 7.42244 1.00001 7.03108V7.09517C1.00126 9.49873 2.72253 11.5683 5.11505 12.0446C4.36004 12.2476 3.56753 12.2771 2.80003 12.1306C3.47128 14.1884 5.39755 15.5978 7.59132 15.6384C5.77505 17.0438 3.53128 17.807 1.22126 17.8045C0.813758 17.8033 0.406254 17.7799 0 17.7319C2.34627 19.2137 5.07505 20 7.86257 19.9963" fill="#09A9EC"/>
</svg>
